<?xml version="1.0" encoding="UTF-8"?>
<svg version="1.1" xmlns="http://www.w3.org/2000/svg" width="1387" height="361">
<path d="M0 0 C1.43088681 0.14241886 2.86130178 0.28958294 4.29150391 0.4387207 C5.08811432 0.52015823 5.88472473 0.60159576 6.70547485 0.6855011 C21.71544988 2.7428421 37.41924046 13.22391289 47.125 24.5 C62.19056736 44.47560045 64.05502075 66.82674369 64.31640625 91.04296875 C64.33702368 92.66392997 64.35802123 94.28488639 64.37937927 95.90583801 C64.43410627 100.13563103 64.48372947 104.3654685 64.53222656 108.59533691 C64.58280631 112.92622754 64.63830036 117.25705504 64.69335938 121.58789062 C64.80033535 130.05854009 64.90191014 138.52924299 65 147 C65.74113037 146.31583008 66.48226074 145.63166016 67.24584961 144.92675781 C68.23539283 144.01874779 69.22506437 143.11087759 70.21484375 142.203125 C71.18284912 141.31270508 72.15085449 140.42228516 73.14819336 139.50488281 C88.10240601 126.36985826 108.68147822 122.83588173 128 124 C145.54823868 125.78031382 161.56702594 132.50284209 173.08984375 146.2734375 C180.19423527 156.41426629 184.7434153 167.84697605 187 180 C187.1654985 180.83916458 187.33099701 181.67832916 187.50151062 182.54292297 C189.62319775 194.99688884 189.34785099 207.53267748 189.37109375 220.12890625 C189.38007295 222.65282745 189.389195 225.17674814 189.39845276 227.70066833 C189.41485829 232.96296937 189.42266155 238.22522655 189.42553711 243.48754883 C189.42919139 249.561413 189.4592597 255.63477791 189.50094169 261.708489 C189.53981058 267.57968812 189.55112904 273.450688 189.55226326 279.32200432 C189.55647018 281.81034014 189.56892318 284.29867622 189.58978081 286.78692818 C189.6165732 290.25496872 189.6119082 293.72160684 189.59936523 297.18969727 C189.62161667 298.72871704 189.62161667 298.72871704 189.64431763 300.29882812 C189.59660725 304.92078037 189.50823015 307.27643731 186.7971344 311.13619995 C183.73806661 313.17453272 182.27990359 313.62728589 178.64648438 313.63110352 C177.60190063 313.64363663 176.55731689 313.65616974 175.4810791 313.66908264 C174.3632605 313.65582443 173.24544189 313.64256622 172.09375 313.62890625 C170.93629272 313.63131821 169.77883545 313.63373016 168.58630371 313.63621521 C166.14197357 313.6352368 163.69762126 313.62184499 161.25341797 313.59692383 C157.51323119 313.56262135 153.77540762 313.57626622 150.03515625 313.59570312 C147.65884411 313.58880455 145.28253807 313.57913208 142.90625 313.56640625 C141.7884314 313.57136612 140.67061279 313.57632599 139.5189209 313.58143616 C138.47433716 313.56559982 137.42975342 313.54976349 136.35351562 313.53344727 C135.4381604 313.52724869 134.52280518 313.52105011 133.57971191 313.5146637 C129.91726186 312.78398905 128.43641436 311.86481844 126 309 C125.25990638 305.66726968 125.33059051 302.39207162 125.37231445 298.98999023 C125.36504333 297.97319687 125.35777222 296.9564035 125.35028076 295.90879822 C125.33165539 292.54171163 125.34777634 289.17568137 125.36328125 285.80859375 C125.35524097 283.46410677 125.34472278 281.11962708 125.33183289 278.77516174 C125.3032322 272.5929941 125.30271482 266.41116116 125.30969238 260.22894287 C125.31700125 250.35895885 125.28551791 240.48908462 125.24724388 230.61918831 C125.23843489 227.18105886 125.24368123 223.74316717 125.25080872 220.30503845 C125.24742077 218.17528216 125.24367048 216.0455264 125.23950195 213.91577148 C125.24519699 212.97042542 125.25089203 212.02507935 125.25675964 211.05108643 C125.20737458 199.74803313 123.87643537 188.87643537 115.5625 180.5625 C107.85012609 175.85983298 99.0783974 175.17282488 90.41015625 177.22265625 C81.58529546 180.06892416 74.94321923 186.76181488 70.45703125 194.74609375 C66.38221455 203.3617619 64.70072723 211.18659596 64.72875977 220.64135742 C64.72091965 222.03557671 64.72091965 222.03557671 64.71292114 223.45796204 C64.70273168 225.46256524 64.69690962 227.46719452 64.69503975 229.47182274 C64.69135992 232.64542755 64.67459156 235.81872441 64.65428162 238.99226379 C64.59900589 248.01032801 64.56812461 257.02843576 64.54370117 266.04663086 C64.52783383 271.57374958 64.49763245 277.10064579 64.45893669 282.62764931 C64.44728905 284.73076328 64.44135636 286.83391699 64.44125557 288.93706322 C64.44106367 291.87388799 64.42281083 294.81009699 64.40063477 297.74682617 C64.40521194 298.61395233 64.40978912 299.48107849 64.414505 300.3744812 C64.35858731 305.02898738 64.1198336 308.27642186 61 312 C58.01222883 312.99592372 55.98031089 313.14369079 52.85766602 313.17700195 C51.80970352 313.18983719 50.76174103 313.20267242 49.68202209 313.21589661 C47.98510475 313.22697701 47.98510475 313.22697701 46.25390625 313.23828125 C45.09124741 313.246353 43.92858856 313.25442474 42.73069763 313.26274109 C40.27026866 313.27657642 37.80982054 313.28730103 35.34936523 313.29516602 C31.58085067 313.312416 27.8132049 313.35631282 24.04492188 313.40039062 C21.65625646 313.41051425 19.26758358 313.41903138 16.87890625 313.42578125 C15.74965225 313.44328934 14.62039825 313.46079742 13.45692444 313.47883606 C11.88025246 313.47444771 11.88025246 313.47444771 10.27172852 313.4699707 C8.88631615 313.47877007 8.88631615 313.47877007 7.47291565 313.48774719 C4.21906113 312.84597099 3.05060282 311.55361664 1 309 C-0.00429719 305.98710844 -0.12433544 304.00015636 -0.12304783 300.85194111 C-0.12503888 299.78004892 -0.12702993 298.70815673 -0.12908131 297.60378295 C-0.12471205 295.83094547 -0.12471205 295.83094547 -0.12025452 294.02229309 C-0.12110894 292.77016279 -0.12196337 291.5180325 -0.12284368 290.22795886 C-0.12508519 286.74584382 -0.12107204 283.26375941 -0.11606562 279.78164828 C-0.11175639 276.02910971 -0.11320788 272.27657294 -0.1139679 268.52403259 C-0.11449283 262.02030336 -0.11134921 255.51658415 -0.10573006 249.01285744 C-0.09761094 239.60950336 -0.09499941 230.20615413 -0.09374207 220.80279692 C-0.0915522 205.54732085 -0.08489387 190.29185012 -0.07543945 175.03637695 C-0.06626366 160.21508816 -0.05918364 145.39380082 -0.05493164 130.57250977 C-0.05466892 129.65927729 -0.05440619 128.74604481 -0.05413551 127.80513863 C-0.05283049 123.22382473 -0.05156678 118.64251083 -0.05032361 114.06119692 C-0.03995302 76.04079421 -0.02233646 38.02039746 0 0 Z " fill="#FEFEFE" transform="translate(1169,20)"/>
<path d="M0 0 C0.8559375 0.64324219 1.711875 1.28648437 2.59375 1.94921875 C22.20117285 18.6600905 31.41845701 44.95981868 33.40625 69.87890625 C35.37672009 98.22858736 29.26971713 124.08261862 12 147 C11.34 147.99 10.68 148.98 10 150 C9.34 150 8.68 150 8 150 C7.73832031 150.59296875 7.47664062 151.1859375 7.20703125 151.796875 C0.76921375 163.54745451 -17.06690286 170.80374606 -29 175 C-36.52314052 177.04450528 -44.2091866 178.53508708 -52 179 C-52.74378906 179.05285156 -53.48757813 179.10570312 -54.25390625 179.16015625 C-71.37126981 179.77627419 -88.54987344 176.03475831 -103.6875 168.1875 C-104.28159668 167.88046143 -104.87569336 167.57342285 -105.48779297 167.25708008 C-110.91677192 164.30648307 -114.94487673 160.93176254 -120 157 C-120.33 171.19 -120.66 185.38 -121 200 C-141.79 200 -162.58 200 -184 200 C-184 128.39 -184 56.78 -184 -17 C-161.40200055 -11.35050014 -145.80207168 -2.88019239 -132 16 C-131.23429688 14.98292969 -131.23429688 14.98292969 -130.453125 13.9453125 C-99.14938649 -26.12791303 -39.62980757 -29.98128495 0 0 Z M-111.3125 47.625 C-120.73532453 60.0997515 -122.54629961 75.32412753 -120.5390625 90.48046875 C-118.5512954 100.26729851 -114.73043686 109.40084659 -107 116 C-106.28457031 116.71736328 -106.28457031 116.71736328 -105.5546875 117.44921875 C-97.15830234 125.50082481 -86.40230037 128.23064072 -75 128 C-64.4473062 127.24511281 -53.02480748 122.01104892 -46 114 C-35.38941902 100.11594192 -33.44296714 86.04048835 -35 69 C-37.17452945 57.32106656 -43.69578844 46.40707622 -53 39 C-72.38030619 26.87187845 -96.2335495 30.29545987 -111.3125 47.625 Z " fill="#FEFEFE" transform="translate(855,161)"/>
<path d="M0 0 C1.36125 1.0828125 1.36125 1.0828125 2.75 2.1875 C2.75 2.8475 2.75 3.5075 2.75 4.1875 C3.31203125 4.41179687 3.8740625 4.63609375 4.453125 4.8671875 C7.42275417 6.57421923 9.25344167 8.73556544 11.5 11.3125 C12.69882813 12.67761719 12.69882813 12.67761719 13.921875 14.0703125 C14.52515625 14.76898438 15.1284375 15.46765625 15.75 16.1875 C16.24628906 15.47464844 16.74257812 14.76179688 17.25390625 14.02734375 C28.63130777 -2.01328116 42.2389705 -11.39706599 61.75 -15.55078125 C63.75 -15.8125 63.75 -15.8125 68.75 -15.8125 C68.75 47.8775 68.75 111.5675 68.75 177.1875 C50.88622222 175.40112222 35.20643509 169.79374693 23.44140625 155.60986328 C20.76377144 152.21613993 18.23035242 148.72829294 15.75 145.1875 C15.20472656 145.8165625 14.65945313 146.445625 14.09765625 147.09375 C4.99323887 157.42765281 -4.09648014 164.80440868 -16.25 171.1875 C-17.00925781 171.6 -17.76851562 172.0125 -18.55078125 172.4375 C-28.54755357 177.40676935 -41.15765957 179.76650358 -52.25 180.1875 C-53.15492188 180.22746094 -54.05984375 180.26742187 -54.9921875 180.30859375 C-79.88189613 180.86976755 -102.64765886 172.8413144 -121.25 156.1875 C-121.25 155.5275 -121.25 154.8675 -121.25 154.1875 C-122.24 153.8575 -123.23 153.5275 -124.25 153.1875 C-135.24920061 141.13068394 -141.85505259 126.81934591 -146.25 111.1875 C-146.73146484 109.48013672 -146.73146484 109.48013672 -147.22265625 107.73828125 C-153.75645825 79.62773776 -149.84114544 48.12509402 -135.25 23.1875 C-126.36781718 9.79590128 -115.97145707 0.24139872 -102.25 -7.8125 C-101.55390625 -8.23273438 -100.8578125 -8.65296875 -100.140625 -9.0859375 C-68.79555247 -26.4228139 -28.31176411 -19.27246593 0 0 Z M-72.4609375 49.6953125 C-81.15090401 61.8005497 -82.49534204 75.77015387 -81.25 90.1875 C-79.07233521 101.664382 -73.68231821 113.87870128 -63.92578125 120.84765625 C-53.35106719 127.43863423 -42.79593023 130.61473617 -30.1875 128.625 C-17.98304232 125.67840989 -8.78913761 119.15480576 -1.859375 108.8828125 C5.80606049 96.0450686 6.81681594 80.22548599 3.6875 65.75 C0.1132854 53.76882995 -6.85657578 44.12908482 -17.625 37.875 C-36.85150072 28.06556086 -58.69226907 33.40330245 -72.4609375 49.6953125 Z " fill="#FEFEFE" transform="translate(1061.25,159.8125)"/>
<path d="M0 0 C1.27852354 -0.00657338 1.27852354 -0.00657338 2.58287585 -0.01327956 C5.45561285 -0.02669641 8.32831915 -0.03285284 11.20108032 -0.03897095 C13.25397379 -0.04686951 15.30686587 -0.0551383 17.35975647 -0.06375122 C24.11495635 -0.08999518 30.87016252 -0.10527912 37.62539673 -0.11953735 C39.94759755 -0.12489566 42.26979832 -0.13027316 44.59199905 -0.13566971 C54.24786784 -0.15730003 63.90373492 -0.17603884 73.55962181 -0.1872921 C87.41620681 -0.20354528 101.27251199 -0.23675469 115.12899148 -0.29369295 C124.8623472 -0.33233114 134.59562787 -0.35191741 144.32905829 -0.35721266 C150.14757307 -0.36087391 155.9657896 -0.3729776 161.78422165 -0.4053154 C167.25569094 -0.43528903 172.72667981 -0.44174614 178.19821358 -0.42993164 C180.2090248 -0.42971002 182.21985763 -0.43808764 184.23059273 -0.45558548 C186.97096419 -0.47813941 189.70957315 -0.47004691 192.44995117 -0.45410156 C193.65024005 -0.47492469 193.65024005 -0.47492469 194.8747772 -0.49616849 C198.78369916 -0.43992582 200.4746173 -0.20800964 203.34491825 2.54490471 C204.94056654 5.30729748 205.36121744 6.80054204 205.38540649 9.95663452 C205.409161 11.34332336 205.409161 11.34332336 205.43339539 12.75802612 C205.42843552 13.74460205 205.42347565 14.73117798 205.41836548 15.74765015 C205.42456406 16.77193115 205.43076263 17.79621216 205.43714905 18.85153198 C205.44424105 21.01334687 205.44108408 23.17521645 205.42837524 25.33700562 C205.41450547 28.64287833 205.44859617 31.94592244 205.48672485 35.2515564 C205.48767604 37.35442167 205.48581725 39.45729049 205.48086548 41.56015015 C205.49412369 42.54672607 205.5073819 43.533302 205.52104187 44.54977417 C205.50850876 45.4742334 205.49597565 46.39869263 205.48306274 47.35116577 C205.48210098 48.15993164 205.48113922 48.96869751 205.48014832 49.80197144 C204.52813211 53.3663031 202.67593487 54.83546936 199.85195923 57.15390015 C196.51728821 57.75517273 196.51728821 57.75517273 192.67495728 57.7215271 C191.62047646 57.7226223 191.62047646 57.7226223 190.54469299 57.72373962 C188.23355479 57.72027106 185.92446161 57.68145024 183.61367798 57.6421814 C182.00657756 57.63285053 180.39946288 57.62573571 178.79234314 57.6207428 C174.57188328 57.60169416 170.35229013 57.55261289 166.13217163 57.4972229 C161.82208988 57.44598367 157.51186744 57.42321885 153.2015686 57.39804077 C144.75130202 57.34449106 136.30173858 57.2592054 127.85195923 57.15390015 C127.85887268 58.86317955 127.85887268 58.86317955 127.86592579 60.60698986 C127.97684944 88.31476327 128.05905271 116.02250793 128.11102009 143.73045635 C128.11615265 146.39626264 128.12132603 149.06206878 128.12661743 151.72787476 C128.12858476 152.72178215 128.12858476 152.72178215 128.13059183 153.73576847 C128.15100041 163.79993276 128.18611192 173.8639791 128.22915649 183.92807007 C128.27894212 195.60476156 128.31123858 207.28134695 128.3224017 218.95814162 C128.32892859 225.142813 128.34430238 231.32718078 128.38060951 237.51175499 C128.41449216 243.33036376 128.42502766 249.14854323 128.41749763 254.96724129 C128.41887563 257.10502834 128.42885377 259.24282943 128.4479866 261.38053131 C128.47280338 264.29576791 128.46690564 267.20937609 128.45323181 270.12464905 C128.46779602 270.97387536 128.48236023 271.82310168 128.49736577 272.69806212 C128.44238668 277.02376499 128.24013865 278.65975167 125.47561169 282.17896652 C122.50740156 284.41326321 121.16698477 284.78114913 117.4984436 284.78500366 C116.45385986 284.79753677 115.40927612 284.81006989 114.33303833 284.82298279 C113.21521973 284.80972458 112.09740112 284.79646637 110.94570923 284.7828064 C109.20952332 284.78642433 109.20952332 284.78642433 107.43826294 284.79011536 C104.9939328 284.78913695 102.54958049 284.77574514 100.1053772 284.75082397 C96.36519042 284.71652149 92.62736684 284.73016636 88.88711548 284.74960327 C86.51080334 284.7427047 84.1344973 284.73303223 81.75820923 284.7203064 C80.64039062 284.72526627 79.52257202 284.73022614 78.37088013 284.7353363 C77.32629639 284.71949997 76.28171265 284.70366364 75.20547485 284.68734741 C74.29011963 284.68114883 73.3747644 284.67495026 72.43167114 284.66856384 C68.93731027 283.97142372 67.36911145 282.66207114 64.85195923 280.15390015 C64.22554684 277.21600246 64.22554684 277.21600246 64.22377014 273.72651672 C64.21667575 273.0831364 64.20958137 272.43975607 64.202272 271.77687937 C64.18467728 269.62191492 64.2028023 267.46875105 64.22085571 265.31381226 C64.21571661 263.7677071 64.20843539 262.2216078 64.19917297 260.67552185 C64.18062606 256.47191802 64.19362724 252.26894705 64.21326327 248.06536937 C64.22966807 243.65131459 64.22083229 239.23729938 64.21574402 234.82322693 C64.21121799 227.39420516 64.22710678 219.96543466 64.2550354 212.53646851 C64.28691289 203.99220509 64.28714227 195.44839931 64.26982063 186.90410417 C64.25383889 178.65265705 64.26077467 170.4013749 64.27775764 162.14993477 C64.28456572 158.65719681 64.28366023 155.1645936 64.27621269 151.67185783 C64.20406729 108.61894529 64.20406729 108.61894529 73.85195923 89.15390015 C74.2928186 88.22319702 74.73367798 87.2924939 75.18789673 86.33358765 C80.78065252 75.24077367 90.4808603 63.62222885 101.85195923 58.15390015 C101.28873585 58.15335538 100.72551247 58.15281061 100.14522171 58.15224934 C86.44082809 58.13728213 72.73676393 58.09452142 59.03255081 58.02180958 C52.40525009 57.98748817 45.77818117 57.96242153 39.15078735 57.95834351 C32.75745906 57.95407171 26.36465411 57.92570114 19.97148895 57.88046837 C17.52983394 57.86745765 15.08811641 57.86319824 12.64643097 57.86774635 C9.23161487 57.87262666 5.81834353 57.84667163 2.40371704 57.81332397 C1.38951691 57.82194962 0.37531677 57.83057526 -0.6696167 57.83946228 C-7.47454546 57.72772869 -7.47454546 57.72772869 -10.77716064 54.91384888 C-12.17868164 52.09221187 -12.64483741 50.45614367 -12.63388062 47.33529663 C-12.64003387 46.40760971 -12.64618713 45.47992279 -12.65252686 44.52412415 C-12.63815582 43.53441116 -12.62378479 42.54469818 -12.60897827 41.5249939 C-12.60806183 40.49834122 -12.60714539 39.47168854 -12.60620117 38.41392517 C-12.60016971 36.24785731 -12.58443747 34.0817976 -12.55966187 31.91586304 C-12.52313235 28.59971409 -12.51864281 25.28468252 -12.51913452 21.96835327 C-12.50930379 19.86222382 -12.49764698 17.75610194 -12.48397827 15.6499939 C-12.48175262 14.65825668 -12.47952698 13.66651947 -12.47723389 12.64472961 C-12.46447418 11.72019485 -12.45171448 10.7956601 -12.43856812 9.84310913 C-12.43094452 9.03212265 -12.42332092 8.22113617 -12.41546631 7.38557434 C-12.11673729 4.89267163 -11.47593252 3.27669998 -10.14804077 1.15390015 C-6.95851525 -0.44086261 -3.50362164 0.00216733 0 0 Z " fill="#FEFEFE" transform="translate(32.148040771484375,48.846099853515625)"/>
<path d="M0 0 C1.74826151 0.29988565 3.49565635 0.6048264 5.24267578 0.91186523 C6.21584747 1.08113022 7.18901917 1.2503952 8.19168091 1.42478943 C11.98392651 2.20153156 15.36334225 3.4622278 18.875 5.0625 C19.55062988 5.36704102 20.22625977 5.67158203 20.92236328 5.98535156 C34.14021948 12.16714565 45.73277886 21.13192689 53 34 C56.09226386 30.16559281 59.1134764 26.27973711 62.12109375 22.37890625 C62.74113281 21.59386719 63.36117187 20.80882812 64 20 C64.763125 19.01128906 65.52625 18.02257812 66.3125 17.00390625 C68.97123675 13.84003462 72.0763174 11.56035371 75.5625 9.375 C76.4762439 8.79588867 76.4762439 8.79588867 77.40844727 8.20507812 C91.12215741 -0.18373172 107.36467969 -1.99781527 123.03515625 1.07421875 C126.27612245 2.6012744 127.79446549 4.12270192 130 7 C130.73383824 10.77189981 130.65310544 14.48835009 130.59375 18.3203125 C130.59379028 19.41592499 130.59383057 20.51153748 130.59387207 21.64035034 C130.58851873 23.95186106 130.5709442 26.26337143 130.54199219 28.57470703 C130.5000665 32.11937805 130.5009302 35.66215364 130.5078125 39.20703125 C130.49732257 41.45313825 130.48438553 43.69923543 130.46875 45.9453125 C130.46854858 47.00783234 130.46834717 48.07035217 130.46813965 49.16506958 C130.45222778 50.14974213 130.43631592 51.13441467 130.41992188 52.14892578 C130.41150269 53.01542755 130.4030835 53.88192932 130.39440918 54.77468872 C129.91462181 57.48171559 129.16414 58.35149051 127 60 C123.28001879 61.15142276 120.58914404 60.995747 116.90625 60.03515625 C105.55621535 57.40678782 91.31182106 57.10753082 81 63 C72.58957962 68.25651274 68.13384554 76.99488579 65.64678955 86.34754944 C64.36659119 93.57688888 64.57755046 100.9107418 64.58930969 108.23342514 C64.59382637 111.29393775 64.57968291 114.35388398 64.56091309 117.41433716 C64.51811697 125.00505814 64.50686167 132.59576394 64.49468994 140.18658447 C64.48316227 146.62485075 64.45962836 153.06285441 64.41999817 159.50101089 C64.40643813 162.51290192 64.41059462 165.52443693 64.41540527 168.53634644 C64.40606693 170.38084367 64.39589868 172.22533695 64.38476562 174.06982422 C64.39091385 174.90418503 64.39706207 175.73854584 64.40339661 176.59819031 C64.35475412 181.18506669 64.05384334 184.32029469 61 188 C58.00632982 188.99789006 55.98611991 189.137985 52.85766602 189.16113281 C51.80970352 189.17074036 50.76174103 189.1803479 49.68202209 189.19024658 C48.55074387 189.19449646 47.41946564 189.19874634 46.25390625 189.203125 C45.09124741 189.20882507 43.92858856 189.21452515 42.73069763 189.22039795 C40.27026276 189.2298485 37.80981524 189.23638215 35.34936523 189.24023438 C31.58099403 189.24995231 27.81316532 189.28098101 24.04492188 189.3125 C21.65625324 189.3190288 19.26758071 189.32427975 16.87890625 189.328125 C15.74965225 189.3404718 14.62039825 189.3528186 13.45692444 189.36553955 C12.40580978 189.36253845 11.35469513 189.35953735 10.27172852 189.35644531 C8.88631615 189.36191376 8.88631615 189.36191376 7.47291565 189.36749268 C4.50107284 188.92585591 3.15358166 188.06933457 1 186 C-0.17016955 182.48949134 -0.13537545 179.34279435 -0.12025452 175.69184875 C-0.12110894 174.9419954 -0.12196337 174.19214204 -0.12284368 173.41956586 C-0.12449449 170.89988505 -0.11898362 168.38027041 -0.11352539 165.8605957 C-0.11324341 164.05722047 -0.11340147 162.25384513 -0.1139679 160.45046997 C-0.11425543 155.5479014 -0.10836572 150.64535718 -0.10139394 145.74279428 C-0.09515317 140.62184029 -0.09455603 135.50088579 -0.09336853 130.37992859 C-0.09025736 120.67958966 -0.08204683 110.97926196 -0.07201904 101.27892798 C-0.06085128 90.23674838 -0.05534578 79.19456824 -0.05032361 68.1523844 C-0.03986406 45.4349167 -0.02226873 22.71745898 0 0 Z " fill="#FEFEFE" transform="translate(414,144)"/>
<path d="M0 0 C1.58659369 0.30406339 3.17247687 0.6118355 4.75805664 0.92114258 C6.08287804 1.17762321 6.08287804 1.17762321 7.4344635 1.43928528 C19.76665168 4.13456537 31.5475025 10.75849863 41 19 C41 19.66 41 20.32 41 21 C41.99 21.33 42.98 21.66 44 22 C46.0078125 24.43359375 46.0078125 24.43359375 48.125 27.4375 C48.82882812 28.42621094 49.53265625 29.41492188 50.2578125 30.43359375 C52 33 52 33 53 35 C53.47308594 34.24976563 53.94617188 33.49953125 54.43359375 32.7265625 C64.78534755 16.70454979 76.65884717 5.30306049 95.6875 0.75 C104.85328124 -0.86919164 116.19248093 -1.56259198 125 2 C127.40406076 3.92324861 128.63919534 5.27839067 130 8 C130.11509649 9.55093827 130.16945318 11.1065943 130.19287109 12.66162109 C130.20893402 13.62957611 130.22499695 14.59753113 130.24154663 15.59481812 C130.28593022 20.01860906 130.3270497 24.44224959 130.35009766 28.86621094 C130.36667452 31.20192415 130.39398696 33.53758628 130.43212891 35.87304688 C130.48678314 39.23594548 130.50875342 42.59765511 130.5234375 45.9609375 C130.54610687 47.00583344 130.56877625 48.05072937 130.59213257 49.12728882 C130.57096232 56.36414769 130.57096232 56.36414769 127.59619141 59.67700195 C124.91759893 61.04199092 123.88916276 61.40081742 121 60.8125 C120.360625 60.69519531 119.72125 60.57789063 119.0625 60.45703125 C117.65486026 60.14511108 116.2511929 59.81484043 114.8515625 59.46875 C102.63062818 57.45982929 89.42235738 57.68606977 78.77734375 64.40234375 C69.55508346 71.45263246 66.06029114 82.80196911 64.26686859 93.85686493 C63.44303262 100.47282435 63.61571219 107.18535815 63.65044022 113.84039688 C63.66436193 116.75806682 63.65763814 119.67507079 63.64559937 122.59274292 C63.61486734 130.87600474 63.61963703 139.15909941 63.63964844 147.44238281 C63.65054719 152.53559302 63.63743337 157.62829261 63.60975266 162.72143173 C63.60431285 164.65513669 63.60837407 166.58889277 63.62215042 168.5225563 C63.64114154 171.21499213 63.62984129 173.90573904 63.61181641 176.59814453 C63.63182457 177.79190453 63.63182457 177.79190453 63.65223694 179.00978088 C63.59590672 182.78566637 63.33352706 184.62286348 60.7963562 187.49177551 C57.77878101 189.11931523 56.04834842 189.51041061 52.64648438 189.53344727 C51.60190063 189.5492836 50.55731689 189.56511993 49.4810791 189.58143616 C48.3632605 189.57647629 47.24544189 189.57151642 46.09375 189.56640625 C44.93629272 189.57260483 43.77883545 189.57880341 42.58630371 189.58518982 C40.14201701 189.59228572 37.69768196 189.58911808 35.25341797 189.57641602 C31.51309353 189.56254855 27.77526953 189.59663133 24.03515625 189.63476562 C21.65885355 189.6357168 19.28254773 189.63385808 16.90625 189.62890625 C15.7884314 189.64216446 14.67061279 189.65542267 13.5189209 189.66908264 C12.47433716 189.65654953 11.42975342 189.64401642 10.35351562 189.63110352 C9.4381604 189.63014175 8.52280518 189.62917999 7.57971191 189.62818909 C3.82503217 188.71388202 2.41420651 186.98165981 0 184 C-0.48335541 181.25903748 -0.65799092 179.14476773 -0.60127258 176.41337585 C-0.60554471 175.6577301 -0.60981683 174.90208434 -0.61421841 174.12354022 C-0.62244362 171.59566992 -0.5949733 169.06946501 -0.56762695 166.54174805 C-0.56621637 164.72822611 -0.56700866 162.91470131 -0.56983948 161.10118103 C-0.57127464 156.17989636 -0.54186846 151.25922044 -0.50696969 146.33807731 C-0.47572305 141.19447649 -0.47277678 136.05086187 -0.46684265 130.90718079 C-0.45129926 121.16782163 -0.41026397 111.42874294 -0.3600952 101.68950731 C-0.30421727 90.60137109 -0.27671912 79.51322152 -0.25161803 68.42497957 C-0.19934865 45.61649752 -0.11139659 22.80826447 0 0 Z " fill="#FEFEFE" transform="translate(258,144)"/>
<path d="M0 0 C1.58799368 0.30587663 3.17535684 0.61502779 4.76245117 0.92553711 C5.64648117 1.09733994 6.53051117 1.26914276 7.44132996 1.44615173 C25.36292813 5.32545071 41.33161403 16.94975619 51.25 32.1875 C60.44046339 47.84058008 63.141337 64.38974918 63.16113281 82.22363281 C63.16858017 83.85215683 63.16858017 83.85215683 63.17617798 85.51358032 C63.19069128 89.07676848 63.19758025 92.63991225 63.203125 96.203125 C63.20888145 98.6893514 63.21463912 101.1755778 63.22039795 103.6618042 C63.23087428 108.85982468 63.23674025 114.05782983 63.24023438 119.25585938 C63.24464309 124.59252135 63.25816291 129.929014 63.28125 135.265625 C63.30874501 141.72100085 63.32163994 148.17624293 63.32357025 154.63167572 C63.32659852 157.08929307 63.33463285 159.54690953 63.34775543 162.00449371 C63.36477669 165.43446987 63.36294608 168.86394427 63.35644531 172.29394531 C63.37026749 173.81669571 63.37026749 173.81669571 63.3843689 175.37020874 C63.33266134 184.06296937 63.33266134 184.06296937 60 188 C57.49390772 189.25304614 55.77556734 189.13370764 52.97119141 189.14526367 C51.39913437 189.15483345 51.39913437 189.15483345 49.7953186 189.16459656 C48.09065933 189.16626579 48.09065933 189.16626579 46.3515625 189.16796875 C44.60545181 189.17296135 44.60545181 189.17296135 42.82406616 189.17805481 C40.3576497 189.18312524 37.89122636 189.1854631 35.42480469 189.18530273 C31.64767151 189.18748689 27.87083137 189.20563526 24.09375 189.22460938 C21.70052184 189.2275437 19.30729228 189.22952823 16.9140625 189.23046875 C15.78167145 189.23765427 14.6492804 189.24483978 13.48257446 189.25224304 C12.42823212 189.24916641 11.37388977 189.24608978 10.28759766 189.24291992 C9.36097321 189.24434494 8.43434875 189.24576996 7.47964478 189.24723816 C4.83831399 188.98387876 3.22640023 188.42659473 1 187 C-0.48722532 184.02554937 -0.13355742 180.99700093 -0.12025452 177.73617554 C-0.12110894 176.9790095 -0.12196337 176.22184346 -0.12284368 175.441733 C-0.12449767 172.89130744 -0.11897843 170.3409469 -0.11352539 167.79052734 C-0.11324348 165.96759543 -0.11340134 164.14466341 -0.1139679 162.32173157 C-0.1142557 157.36125452 -0.10836169 152.40080148 -0.10139394 147.44033003 C-0.0951576 142.26064646 -0.09455638 137.08096238 -0.09336853 131.90127563 C-0.09025604 122.08757237 -0.08204376 112.2738802 -0.07201904 102.46018183 C-0.06085535 91.28985371 -0.05534681 80.11952507 -0.05032361 68.94919276 C-0.03986109 45.96612235 -0.02226323 22.9830618 0 0 Z " fill="#FEFEFE" transform="translate(571,144)"/>
<path d="M0 0 C0.60457031 0.34675781 1.20914063 0.69351563 1.83203125 1.05078125 C8.39672066 5.21270852 12.46451219 11.74287044 15 19 C16.69598888 27.26110714 16.07709316 34.74294444 11.875 42.125 C5.25558403 51.83219018 -4.40638641 57.07158873 -15.625 59.8125 C-31.18344874 62.74233775 -48.41710967 61.90775439 -62.1796875 53.2734375 C-70.03726965 47.77650235 -75.20915485 41.60544218 -77 32 C-77.97503139 22.27968709 -76.03452517 14.4239238 -69.875 6.75 C-63.25493541 -0.23706177 -55.21540116 -3.75273551 -46 -6 C-45.39269043 -6.17200928 -44.78538086 -6.34401855 -44.15966797 -6.52124023 C-29.88487067 -9.68570751 -12.51106443 -7.51749425 0 0 Z " fill="#FEFEFE" transform="translate(630,52)"/>
</svg>
